<?xml version="1.0" ?><svg viewBox="0 0 64 64" xmlns="http://www.w3.org/2000/svg"><g data-name="22-Scythe" id="_22-Scythe"><path d="M15,41v2a2,2,0,0,1-4,0V41a2.006,2.006,0,0,1,2-2,2.015,2.015,0,0,1,2,2Z" style="fill:#ffa426"/><path d="M13,42a2,2,0,0,1-1.929-1.5A1.966,1.966,0,0,0,11,41v2a2,2,0,0,0,4,0V41a1.974,1.974,0,0,0-.071-.5A2,2,0,0,1,13,42Z" style="fill:#ffda45"/><path d="M23,21v8a2,2,0,0,1-4,0V25a2,2,0,0,1-4,0v8a2,2,0,0,1-4,0V21H1a18.085,18.085,0,0,1,3.92-5.08L5,16H40v5Z" style="fill:#ffa426"/><path d="M11,18H3A14.8,14.8,0,0,0,1,21H11Z" style="fill:#ffda45"/><path d="M13,32a2.006,2.006,0,0,1-2-2v3a2,2,0,0,0,4,0V30A2.006,2.006,0,0,1,13,32Z" style="fill:#ffda45"/><path d="M19,22a2,2,0,0,1-4,0v3a2,2,0,0,0,4,0Z" style="fill:#ffda45"/><path d="M21,28a2.006,2.006,0,0,1-2-2v3a2,2,0,0,0,4,0V26A2.006,2.006,0,0,1,21,28Z" style="fill:#ffda45"/><rect height="3" style="fill:#ffda45" width="17" x="23" y="18"/><path d="M40,5V16H5l-.08-.08C9.79,11.23,20.03,5,40,5Z" style="fill:#d2a0f5"/><polygon points="41 5 46 5 48 5 48 21 46 21 41 21 40 21 40 16 40 5 41 5" style="fill:#b674f2"/><polygon points="44.5 5 47 5 48 5 48 21 47 21 44.5 21 44 21 44 16 44 5 44.5 5" style="fill:#a260e5"/><rect height="4" style="fill:#ffa426" width="5" x="41" y="1"/><path d="M41,60.5A2.5,2.5,0,0,0,38.5,58a2.5,2.5,0,1,0,0-5H37s5,0,5-5V45s.59,4.74,4.06,6.91v.01L46,52V63H38.5A2.492,2.492,0,0,0,41,60.5Z" style="fill:#ffa426"/><path d="M42,45v3c0,5-5,5-5,5h1.5a2.466,2.466,0,0,1,2.471,2.208A4.866,4.866,0,0,0,42,52V49s.586,4.68,4,6.868V52l.06-.08v-.01C42.59,49.74,42,45,42,45Z" style="fill:#ff7045"/><path d="M46,21V40H41V21Z" style="fill:#ffa426"/><path d="M38.5,58a2.5,2.5,0,1,1,0,5h-5a2.5,2.5,0,1,1,0-5Z" style="fill:#64e1dc"/><path d="M40.27,53.73A2.5,2.5,0,0,1,38.5,58h-5a2.5,2.5,0,0,1,0-5h5A2.5,2.5,0,0,1,40.27,53.73Z" style="fill:#64e1dc"/><path d="M37,48v5H33.5a2.5,2.5,0,0,1,0-5Z" style="fill:#64e1dc"/><path d="M37,44v4H33.5a2.5,2.5,0,0,1,0-5H37l.09.02A4.881,4.881,0,0,0,37,44Z" style="fill:#64e1dc"/><path d="M40.27,60.27A2.5,2.5,0,0,1,38.5,61h-5a2.5,2.5,0,0,1-2.289-1.5A2.5,2.5,0,0,0,33.5,63h5a2.495,2.495,0,0,0,2.289-3.5A2.478,2.478,0,0,1,40.27,60.27Z" style="fill:#00c8c8"/><path d="M38.5,56h-5a2.474,2.474,0,0,1-2.289-1.5A2.494,2.494,0,0,0,33.5,58h5a2.5,2.5,0,0,0,2.289-3.5A2.5,2.5,0,0,1,38.5,56Z" style="fill:#00c8c8"/><path d="M31.73,50.27a2.478,2.478,0,0,1-.519-.769A2.494,2.494,0,0,0,33.5,53H37V51H33.5A2.5,2.5,0,0,1,31.73,50.27Z" style="fill:#00c8c8"/><path d="M31.73,45.27a2.478,2.478,0,0,1-.519-.769A2.494,2.494,0,0,0,33.5,48H37V46H33.5A2.5,2.5,0,0,1,31.73,45.27Z" style="fill:#00c8c8"/><path d="M37,44a4.881,4.881,0,0,1,.09-.98L37,43Z" style="fill:#00c8c8"/><path d="M46.06,51.92v-.01C42.59,49.74,42,45,42,45v3c0,5-5,5-5,5V44a4.881,4.881,0,0,1,.09-.98C37.69,40,41,40,41,40h9c4,0,4,4,4,4h9V59H54c0,4-4,4-4,4H46V52Z" style="fill:#64e1dc"/><path d="M37,50v3s5,0,5-5V45C42,50,37,50,37,50Z" style="fill:#00a0aa"/><path d="M50,60H46v3h4s4,0,4-4h9V56H54C54,60,50,60,50,60Z" style="fill:#00c8c8"/><path d="M46,49l.06-.08v-.01C42.59,46.74,42,42,42,42v3s.586,4.68,4,6.868Z" style="fill:#00c8c8"/><path d="M50,53a7.183,7.183,0,0,1-3.94-1.08v-.01C42.59,49.74,42,45,42,45v3c0,5-5,5-5,5V44a4.881,4.881,0,0,1,.09-.98C37.69,40,41,40,41,40h9c4,0,4,4,4,4h9V59H54c0,4-4,4-4,4H38.5" style="fill:none;stroke:#000;stroke-linejoin:round;stroke-width:2px"/><path d="M37,43H33.5a2.5,2.5,0,1,0,0,5" style="fill:none;stroke:#000;stroke-linejoin:round;stroke-width:2px"/><path d="M37,48H33.5a2.5,2.5,0,1,0,0,5" style="fill:none;stroke:#000;stroke-linejoin:round;stroke-width:2px"/><path d="M38.5,58a2.5,2.5,0,1,1,0,5h-5a2.5,2.5,0,1,1,0-5h5a2.5,2.5,0,1,0,0-5h-5a2.5,2.5,0,1,0,0,5" style="fill:none;stroke:#000;stroke-linejoin:round;stroke-width:2px"/><line style="fill:none;stroke:#000;stroke-linejoin:round;stroke-width:2px" x1="46" x2="46" y1="52" y2="63"/><polyline points="40 5 41 5 46 5 48 5 48 21 46 21 41 21 40 21" style="fill:none;stroke:#000;stroke-linejoin:round;stroke-width:2px"/><polyline points="41 5 41 1 46 1 46 5" style="fill:none;stroke:#000;stroke-linejoin:round;stroke-width:2px"/><line style="fill:none;stroke:#000;stroke-linejoin:round;stroke-width:2px" x1="41" x2="41" y1="21" y2="40"/><line style="fill:none;stroke:#000;stroke-linejoin:round;stroke-width:2px" x1="46" x2="46" y1="21" y2="40"/><line style="fill:none;stroke:#000;stroke-linejoin:round;stroke-width:2px" x1="33" x2="40" y1="16" y2="16"/><line style="fill:none;stroke:#000;stroke-linejoin:round;stroke-width:2px" x1="29" x2="31" y1="16" y2="16"/><line style="fill:none;stroke:#000;stroke-linejoin:round;stroke-width:2px" x1="5" x2="27" y1="16" y2="16"/><path d="M4.92,15.92A18.085,18.085,0,0,0,1,21H11V33a2,2,0,0,0,4,0V25a2,2,0,0,0,4,0v4a2,2,0,0,0,4,0V21H40V5C20.03,5,9.79,11.23,4.92,15.92Z" style="fill:none;stroke:#000;stroke-linejoin:round;stroke-width:2px"/><line style="fill:none;stroke:#000;stroke-linejoin:round;stroke-width:2px" x1="23" x2="17" y1="21" y2="21"/><path d="M13,45a2.006,2.006,0,0,1-2-2V41a2.006,2.006,0,0,1,2-2,2.015,2.015,0,0,1,2,2v2A2.006,2.006,0,0,1,13,45Z" style="fill:none;stroke:#000;stroke-linejoin:round;stroke-width:2px"/><line style="fill:none;stroke:#000;stroke-linejoin:round;stroke-width:2px" x1="58" x2="58" y1="44" y2="48"/><line style="fill:none;stroke:#000;stroke-linejoin:round;stroke-width:2px" x1="58" x2="58" y1="50" y2="52"/><line style="fill:none;stroke:#000;stroke-linejoin:round;stroke-width:2px" x1="54" x2="54" y1="59" y2="55"/><line style="fill:none;stroke:#000;stroke-linejoin:round;stroke-width:2px" x1="49" x2="49" y1="40" y2="43"/></g></svg>